HIERARCHY
ROOT Hips
{
  OFFSET 279.157 85.6768 304.565
  CHANNELS 6 Xposition Yposition Zposition Zrotation Xrotation Yrotation
  JOINT LeftUpLeg
  {
    OFFSET 8.64259 1.95398 -2.38835
    CHANNELS 3 Zrotation Xrotation Yrotation
    JOINT LeftLeg
    {
      OFFSET 43.7702 0 0
      CHANNELS 3 Zrotation Xrotation Yrotation
      JOINT LeftFoot
      {
        OFFSET 40.6238 0 0
        CHANNELS 3 Zrotation Xrotation Yrotation
        JOINT LeftToeBase
        {
          OFFSET 12.7242 0 0
          CHANNELS 3 Zrotation Xrotation Yrotation
          End Site
          {
            OFFSET 0 0 0
          }
        }
      }
    }
  }
  JOINT RightUpLeg
  {
    OFFSET -8.2249 1.95398 -2.59336
    CHANNELS 3 Zrotation Xrotation Yrotation
    JOINT RightLeg
    {
      OFFSET 43.5653 0 0
      CHANNELS 3 Zrotation Xrotation Yrotation
      JOINT RightFoot
      {
        OFFSET 40.6238 0 0
        CHANNELS 3 Zrotation Xrotation Yrotation
        JOINT RightToeBase
        {
          OFFSET 12.7242 0 0
          CHANNELS 3 Zrotation Xrotation Yrotation
          End Site
          {
            OFFSET 0 0 0
          }
        }
      }
    }
  }
  JOINT Spine
  {
    OFFSET 0.165834 0.87714 6.61349
    CHANNELS 3 Zrotation Xrotation Yrotation
    JOINT Spine1
    {
      OFFSET 7.38963 1.71661e-005 0
      CHANNELS 3 Zrotation Xrotation Yrotation
      JOINT Spine2
      {
        OFFSET 11.9445 1.14441e-005 0
        CHANNELS 3 Zrotation Xrotation Yrotation
        JOINT Spine3
        {
          OFFSET 14.7254 4.19617e-005 0
          CHANNELS 3 Zrotation Xrotation Yrotation
          JOINT Spine4
          {
            OFFSET 10.9679 0 0
            CHANNELS 3 Zrotation Xrotation Yrotation
            JOINT RightShoulder
            {
              OFFSET 2.46616 -1.6653 3.69651
              CHANNELS 3 Zrotation Xrotation Yrotation
              JOINT RightArm
              {
                OFFSET 13.0012 0 0
                CHANNELS 3 Zrotation Xrotation Yrotation
                JOINT RightForeArm
                {
                  OFFSET 28.7848 1.52588e-005 0
                  CHANNELS 3 Zrotation Xrotation Yrotation
                  JOINT RightHand
                  {
                    OFFSET 26.5688 1.52588e-005 0
                    CHANNELS 3 Zrotation Xrotation Yrotation
                    End Site
                    {
                      OFFSET 0 0 0
                    }
                  }
                }
              }
            }
            JOINT LeftShoulder
            {
              OFFSET 2.38034 -1.29275 -3.7523
              CHANNELS 3 Zrotation Xrotation Yrotation
              JOINT LeftArm
              {
                OFFSET 16.3182 6.10351e-005 0
                CHANNELS 3 Zrotation Xrotation Yrotation
                JOINT LeftForeArm
                {
                  OFFSET 27.0901 0 0
                  CHANNELS 3 Zrotation Xrotation Yrotation
                  JOINT LeftHand
                  {
                    OFFSET 24.5451 1.52588e-005 0
                    CHANNELS 3 Zrotation Xrotation Yrotation
                    End Site
                    {
                      OFFSET 0 0 0
                    }
                  }
                }
              }
            }
            JOINT Neck
            {
              OFFSET 5.0226 -0.0266342 0
              CHANNELS 3 Zrotation Xrotation Yrotation
              JOINT Head
              {
                OFFSET 6.69364 2.86102e-005 0
                CHANNELS 3 Zrotation Xrotation Yrotation
                End Site
                {
                  OFFSET 0 0 0
                }
              }
            }
          }
        }
      }
    }
  }
}
MOTION
Frames:	14
Frame Time:	0.0416667
-29.3397 102.022 -32.2717 84.0296 -43.1526 87.1703 -168.92 -26.7985 91.8344 -28.8693 -2.18797 -1.59885 52.1484 -4.72887 -0.0276405 21.9654 -2.23718 -4.7808 -177.89 42.5974 98.1523 -31.6897 -12.5279 -1.19999 71.677 -7.62632 -2.87257 22.6488 1.28907 4.41577 -3.5538 7.85283 -91.7427 11.0848 -7.882 -2.70719 -0.564207 -7.99342 -2.35577 -23.2253 -6.70356 -4.95813 -3.21265 -6.70355 -4.95814 97.1761 -7.44102 -98.1585 67.3117 -19.8018 61.9933 -39.934 -10.5962 -64.2514 -43.7282 3.97005 -22.8236 -82.2439 -0.152661 80.8885 5.49398 4.74071 -32.9744 30.7323 -11.1969 -95.472 7.25122 -2.46267 -32.0056 35.2353 20.402 2.0429 -17.4184 17.9617 4.49448 
-23.0952 101.748 -26.9507 84.9976 -44.6948 85.9536 -168.349 -26.3585 89.6409 -38.3851 -0.282676 -3.38415 53.3538 -4.42886 0.548608 24.1826 -0.885017 -5.7763 -178.588 37.3357 97.1613 -21.3235 -14.2134 -0.463013 69.8281 -6.86763 -2.31594 22.6927 1.28942 4.34629 -3.4337 7.85395 -91.6304 11.0925 -7.59099 -2.51102 -0.557898 -7.69407 -2.17277 -23.2124 -6.4849 -4.68306 -3.19974 -6.48491 -4.68308 97.9449 -11.5189 -94.3979 62.9644 -25.2953 59.2201 -44.7691 -13.0873 -66.432 -37.6177 3.1014 -24.5136 -82.9762 -3.60401 80.0124 6.25233 8.81114 -30.4212 30.2619 -11.7042 -94.8258 6.54432 -2.24244 -31.4462 33.9548 21.1146 4.31943 -17.2294 17.7813 4.26545 
-17.0464 101.426 -21.6578 85.9289 -45.8923 85.4031 -166.646 -24.3092 89.0381 -49.2799 5.08024 -4.52435 53.5875 -4.4794 1.95288 26.0142 -0.270268 -4.77975 -179.077 33.0682 96.6859 -15.1616 -11.9902 -0.081246 67.6349 -5.74159 -1.73575 23.6668 0.984457 4.38273 -3.27757 7.86011 -91.5837 11.0847 -7.25855 -2.45065 -0.56765 -7.35931 -2.12732 -23.2106 -6.18608 -4.5246 -3.19796 -6.18609 -4.52461 97.1105 -14.7367 -95.7446 58.7281 -24.9166 55.3935 -46.0182 -13.2201 -68.4769 -36.7404 2.64681 -23.8535 -83.9004 -8.02743 79.1624 6.2934 14.2684 -27.6883 29.1382 -13.1402 -95.1967 6.24373 -2.08152 -30.4117 32.8139 21.4469 6.17109 -17.447 17.3668 4.55662 
-11.1872 100.792 -16.4124 86.6577 -47.6726 85.3353 -163.608 -21.0204 89.6229 -61.2991 9.17918 -5.11124 53.992 -4.12554 2.89729 25.4197 -0.259606 -5.93563 -179.414 30.5719 96.8483 -14.8084 -9.59087 0.13381 68.2497 -5.96839 -1.388 22.5131 1.66438 2.64431 -3.05171 7.89666 -91.634 11.0086 -6.83178 -2.59843 -0.646314 -6.93947 -2.29405 -23.2697 -5.73496 -4.53565 -3.25704 -5.73496 -4.53565 95.6879 -18.3703 -98.3741 52.0963 -23.3084 49.7324 -47.2771 -14.2163 -70.9285 -36.4335 2.2291 -23.0917 -85.1072 -15.3927 78.6626 6.7019 18.2129 -23.9396 30.5728 -14.1909 -95.6059 8.75185 -2.50694 -28.8195 30.4381 22.407 10.8034 -15.0034 16.994 2.36205 
-5.49279 99.8943 -11.1503 86.5101 -49.6113 84.7784 -159.718 -16.0042 90.623 -74.2492 11.0082 -4.70156 54.6968 -3.37845 3.99252 21.3095 -1.87523 -7.07161 -179.89 29.3205 97.1256 -17.6223 -10.3518 0.338976 68.3953 -5.81412 -1.7584 21.1304 2.54279 0.534482 -2.72758 7.86344 -91.7185 11.0721 -6.22612 -2.81968 -0.586412 -6.34414 -2.54213 -23.1836 -5.09122 -4.56272 -3.17097 -5.09122 -4.56272 93.3428 -23.3776 -102.175 44.0123 -21.4037 44.2258 -47.8321 -13.8674 -74.1358 -40.3316 2.20931 -21.4331 -86.5364 -23.8278 78.2374 6.81783 21.9124 -20.0204 33.1897 -14.8531 -95.0332 8.56618 -2.52426 -29.3874 27.5857 22.7782 15.1838 -11.9413 16.2854 0.57361 
0.218517 98.7044 -5.96854 87.4066 -51.5792 85.7612 -155.073 -10.5426 92.5281 -87.2272 8.8766 -3.03822 54.9847 -2.81979 4.31677 20.7383 -1.74673 -8.38786 179.508 26.0037 97.6998 -18.8221 -13.4408 0.687551 67.0327 -4.9365 -2.03187 22.3729 1.60413 3.21466 -2.33228 7.97614 -91.7888 10.8458 -5.46982 -3.04699 -0.816611 -5.59853 -2.80286 -23.3857 -4.30191 -4.55053 -3.37309 -4.30189 -4.55053 90.539 -27.5609 -106.626 35.8801 -17.885 37.3897 -46.5809 -10.2685 -77.3033 -40.6553 2.41838 -21.3343 -87.8682 -31.1203 77.7074 4.91862 25.3245 -14.7037 31.2393 -15.1494 -94.8134 9.49277 -2.42024 -26.4549 27.4452 22.4594 16.3794 -11.4218 15.5608 0.423536 
5.87561 97.5443 -0.748468 88.4238 -52.8144 87.6874 -151.001 -3.13687 94.8192 -99.5383 4.32984 -0.230166 55.2633 -1.85504 3.44657 19.6723 -2.4014 -7.84154 178.901 22.6267 98.3876 -19.8943 -15.4039 1.16614 61.7278 -1.20458 -0.125218 27.1284 -0.132443 4.70627 -1.98248 8.05328 -91.8674 10.6918 -4.80783 -3.27305 -0.973829 -4.94715 -3.0581 -23.5206 -3.60287 -4.56618 -3.50797 -3.60286 -4.56617 88.0347 -31.2185 -110.102 28.2423 -14.9929 28.9118 -44.7665 -5.43839 -81.993 -39.9998 2.35251 -20.4727 -89.063 -37.4526 77.2747 0.863885 28.2546 -6.77592 31.844 -15.2199 -94.0731 8.47738 -2.06118 -24.9833 27.0039 21.8118 16.3463 -10.8917 14.9846 0.679848 
11.1279 96.3744 4.48286 89.3584 -54.1291 89.6218 -148.033 5.2736 95.5323 -110.678 4.46602 2.57182 54.4477 -1.42298 5.5583 18.8604 -2.13289 -9.83361 177.402 24.4949 99.9311 -33.0134 -19.5714 2.52859 68.5911 -5.00507 -3.7482 6.52125 6.31454 4.82493 -1.49969 8.11708 -91.9537 10.5685 -3.88454 -3.53443 -1.10101 -4.03626 -3.36009 -23.6225 -2.64392 -4.53729 -3.60985 -2.64392 -4.53728 87.8435 -31.0943 -110.531 24.6076 -10.9819 17.402 -45.8145 -4.78921 -89.343 -39.4061 1.40456 -17.9029 -88.9806 -41.3925 78.3862 -6.02687 29.5716 0.891631 33.4625 -14.4526 -92.3004 6.5927 -1.86307 -26.6791 26.016 20.7764 17.2203 -10.0018 13.8784 -0.250986 
15.6457 95.2329 9.34856 88.0604 -55.8033 88.9489 -146.197 16.8446 92.8827 -120.863 5.67632 4.85506 53.2842 -1.03776 6.41752 16.8857 -3.88652 -7.29159 178.585 25.4265 102.15 -42.7995 -18.1585 0.71372 72.7917 -8.54674 -7.29607 14.4308 4.29246 2.7107 -0.901016 7.99262 -91.9617 10.8319 -2.69978 -3.64991 -0.841063 -2.85769 -3.52772 -23.3436 -1.47919 -4.2915 -3.33098 -1.47918 -4.2915 90.1787 -30.3602 -106.269 23.7303 -9.15334 2.08531 -46.1792 -1.56827 -92.4516 -39.4676 0.815675 -15.8755 -87.8141 -44.8777 81.0403 -13.4085 29.8153 9.87972 36.9154 -13.6157 -90.7448 7.18602 -1.97976 -26.6826 24.9541 19.3337 18.0911 -8.98217 12.3367 -0.479475 
19.7273 94.736 13.9244 86.3032 -58.1879 89.4636 -146.225 30.2037 90.6728 -128.624 10.211 6.1803 51.6804 -1.80591 7.76337 15.8198 -3.77065 -9.04312 -179.897 23.0402 105.076 -45.154 -17.0902 -0.123026 76.4675 -12.2422 -9.25209 13.3412 4.62745 2.80479 -0.209031 7.9663 -92.0868 10.8988 -1.38076 -4.02075 -0.777488 -1.55625 -3.95623 -23.2628 -0.109774 -4.24945 -3.25016 -0.109766 -4.24946 90.839 -30.9181 -104.766 21.6664 -3.97492 -13.0645 -46.1608 0.150773 -94.7102 -38.3419 0.627825 -15.5976 -86.2887 -46.3788 83.7233 -22.2142 26.1886 20.876 38.5844 -13.4203 -91.2774 6.7849 -1.91059 -26.795 26.9638 18.2149 17.9566 -10.146 10.8959 -0.129108 
24.5639 94.7648 18.853 84.8288 -61.9098 88.5612 -146.987 39.6574 87.9811 -131.753 13.6026 6.43587 54.9447 0.19467 8.67593 15.6768 -3.75581 -9.26028 -179.593 17.8149 104.631 -44.9867 -21.1873 -0.877785 80.0931 -15.3194 -10.1448 12.9352 4.95416 2.11179 0.595951 8.00214 -91.9555 10.8588 0.283092 -3.91725 -0.818006 0.110546 -3.9259 -23.3108 1.44652 -3.65175 -3.29812 1.44651 -3.65175 89.7057 -29.7245 -107.446 23.7109 8.12717 -24.0784 -45.0084 -0.879928 -100.262 -36.8406 0.277981 -15.0057 -84.5338 -46.5985 86.5148 -29.4656 20.2869 31.3314 39.7366 -14.0638 -93.1614 4.67414 -1.59647 -28.6681 29.783 16.9893 18.3614 -11.4442 9.08663 -0.974383 
29.6607 94.8475 24.1443 83.7048 -64.2883 85.6504 -149.032 45.2059 85.2945 -131.04 14.7541 6.16907 61.1537 4.04966 9.36626 18.0707 -2.28108 -10.5059 -178.33 12.0456 101.687 -44.196 -22.3167 -3.42301 82.1301 -16.4674 -8.15347 17.954 4.00782 -1.01108 1.35794 7.99871 -91.5383 10.8951 1.99252 -3.24765 -0.778545 1.84773 -3.33209 -23.3047 2.87615 -2.49919 -3.29201 2.87615 -2.4992 89.7185 -25.937 -109.014 32.6086 20.8745 -33.3665 -44.1044 -5.10922 -106.893 -39.3203 0.117396 -14.4504 -83.0422 -44.6513 88.6547 -36.1671 17.1697 39.7616 38.3141 -14.9444 -94.1458 3.45227 -1.42468 -30.1022 31.7016 14.6992 18.5386 -12.3394 6.45292 -1.39878 
35.0344 95.6965 29.5692 84.1051 -64.7069 83.19 -151.544 48.5391 82.2084 -126.524 13.7742 5.72823 67.1741 8.324 10.8013 20.3011 -2.93516 -5.17323 -178.509 3.41455 97.0961 -37.8469 -21.2052 -5.16431 83.1449 -16.2083 -3.78719 21.3187 2.55918 0.135394 2.07125 8.07873 -90.9641 10.7531 3.68007 -2.25655 -0.914913 3.57721 -2.41642 -23.4873 4.18786 -1.04483 -3.4747 4.18787 -1.04483 90.3641 -21.9806 -109.436 45.3807 34.2889 -42.4667 -42.9636 -8.0511 -114.972 -42.0272 -0.713765 -12.0631 -82.4781 -41.7307 89.2702 -40.6204 17.2828 45.0544 36.2066 -15.9129 -94.2174 5.3847 -1.79967 -29.1867 33.3757 11.4834 18.8138 -13.0074 3.00873 -2.52388 
40.6189 96.8097 35.4255 84.0279 -63.4621 80.4233 -154.624 51.3337 79.3752 -119.108 10.9405 5.08711 70.2864 9.78738 11.0535 22.0132 -1.86396 -5.97835 178.364 -4.41372 92.1822 -29.5366 -21.3627 -5.3244 79.2321 -12.9855 -0.939234 27.3126 0.179317 2.33222 2.65894 8.06807 -90.3458 10.7701 5.13529 -1.16353 -0.891434 5.07908 -1.38897 -23.5082 5.24688 0.437944 -3.49559 5.24689 0.437944 91.9354 -17.4338 -108.003 62.6939 45.4503 -53.5492 -41.3771 -12.4074 -123.6 -44.3557 -1.15578 -11.1943 -81.5956 -38.4048 90.4542 -43.9724 19.9887 50.1483 33.9366 -18.2027 -94.7827 5.82163 -1.8986 -29.2135 34.6081 7.43606 17.4241 -14.0501 -0.44424 -2.74408 
